<svg width="174" height="54" viewBox="0 0 174 54" fill="none" xmlns="http://www.w3.org/2000/svg">
<path d="M75.123 21H72.7871L65.3857 6.75586V21H63.0498V2.51562H65.3857L72.8125 16.8232V2.51562H75.123V21ZM78.3604 13.4971C78.3604 11.4997 78.8428 9.92122 79.8076 8.76172C80.7809 7.59375 82.0632 7.00977 83.6543 7.00977C85.2454 7.00977 86.5234 7.57682 87.4883 8.71094C88.4616 9.84505 88.9609 11.3896 88.9863 13.3447V14.792C88.9863 16.7809 88.5039 18.3551 87.5391 19.5146C86.5742 20.6742 85.2878 21.2539 83.6797 21.2539C82.0885 21.2539 80.8105 20.6911 79.8457 19.5654C78.8893 18.4398 78.3942 16.9163 78.3604 14.9951V13.4971ZM80.6074 14.792C80.6074 16.2054 80.8825 17.3184 81.4326 18.1309C81.9912 18.9349 82.7402 19.3369 83.6797 19.3369C85.6602 19.3369 86.68 17.9066 86.7393 15.0459V13.4971C86.7393 12.0921 86.46 10.9834 85.9014 10.1709C85.3428 9.34993 84.5938 8.93945 83.6543 8.93945C82.7318 8.93945 81.9912 9.34993 81.4326 10.1709C80.8825 10.9834 80.6074 12.0879 80.6074 13.4844V14.792ZM98.8887 19.7939C98.1439 20.7673 97.0563 21.2539 95.626 21.2539C94.3818 21.2539 93.4424 20.8265 92.8076 19.9717C92.1729 19.1084 91.8512 17.8558 91.8428 16.2139V7.26367H94.0771V16.0488C94.0771 18.1901 94.7204 19.2607 96.0068 19.2607C97.3695 19.2607 98.3089 18.6514 98.8252 17.4326V7.26367H101.072V21H98.9395L98.8887 19.7939ZM110.124 9.37109C109.811 9.31185 109.472 9.28223 109.108 9.28223C107.957 9.28223 107.153 9.91276 106.696 11.1738V21H104.449V7.26367H106.633L106.671 8.66016C107.272 7.5599 108.122 7.00977 109.223 7.00977C109.578 7.00977 109.874 7.06901 110.111 7.1875L110.124 9.37109ZM118.046 9.37109C117.733 9.31185 117.394 9.28223 117.03 9.28223C115.879 9.28223 115.075 9.91276 114.618 11.1738V21H112.371V7.26367H114.555L114.593 8.66016C115.194 7.5599 116.044 7.00977 117.145 7.00977C117.5 7.00977 117.796 7.06901 118.033 7.1875L118.046 9.37109ZM122.718 21H120.471V7.26367H122.718V21ZM122.896 3.62012C122.896 4.00098 122.79 4.31836 122.578 4.57227C122.367 4.82617 122.045 4.95312 121.613 4.95312C121.19 4.95312 120.873 4.82617 120.661 4.57227C120.45 4.31836 120.344 4.00098 120.344 3.62012C120.344 3.23926 120.45 2.91764 120.661 2.65527C120.873 2.3929 121.19 2.26172 121.613 2.26172C122.036 2.26172 122.354 2.39714 122.565 2.66797C122.785 2.93034 122.896 3.24772 122.896 3.62012ZM132.938 17.4834C132.938 17.001 132.756 16.5863 132.392 16.2393C132.028 15.8923 131.325 15.486 130.284 15.0205C129.074 14.5212 128.219 14.0938 127.72 13.7383C127.229 13.3828 126.861 12.9808 126.615 12.5322C126.37 12.0752 126.247 11.5335 126.247 10.9072C126.247 9.79004 126.653 8.86328 127.466 8.12695C128.287 7.38216 129.332 7.00977 130.602 7.00977C131.939 7.00977 133.014 7.39909 133.826 8.17773C134.639 8.95638 135.045 9.95508 135.045 11.1738H132.811C132.811 10.556 132.603 10.0312 132.188 9.59961C131.774 9.15951 131.245 8.93945 130.602 8.93945C129.941 8.93945 129.421 9.11296 129.04 9.45996C128.668 9.7985 128.481 10.2555 128.481 10.8311C128.481 11.2881 128.617 11.6562 128.888 11.9355C129.167 12.2148 129.831 12.583 130.881 13.04C132.548 13.6917 133.682 14.3307 134.283 14.957C134.884 15.5749 135.185 16.362 135.185 17.3184C135.185 18.5117 134.774 19.4681 133.953 20.1875C133.132 20.8984 132.032 21.2539 130.652 21.2539C129.222 21.2539 128.062 20.8434 127.174 20.0225C126.285 19.2015 125.841 18.1605 125.841 16.8994H128.101C128.126 17.6611 128.359 18.2578 128.799 18.6895C129.239 19.1211 129.857 19.3369 130.652 19.3369C131.397 19.3369 131.964 19.1719 132.354 18.8418C132.743 18.5033 132.938 18.0505 132.938 17.4834ZM144.795 17.4834C144.795 17.001 144.613 16.5863 144.249 16.2393C143.885 15.8923 143.183 15.486 142.142 15.0205C140.931 14.5212 140.076 14.0938 139.577 13.7383C139.086 13.3828 138.718 12.9808 138.473 12.5322C138.227 12.0752 138.104 11.5335 138.104 10.9072C138.104 9.79004 138.511 8.86328 139.323 8.12695C140.144 7.38216 141.189 7.00977 142.459 7.00977C143.796 7.00977 144.871 7.39909 145.684 8.17773C146.496 8.95638 146.902 9.95508 146.902 11.1738H144.668C144.668 10.556 144.461 10.0312 144.046 9.59961C143.631 9.15951 143.102 8.93945 142.459 8.93945C141.799 8.93945 141.278 9.11296 140.897 9.45996C140.525 9.7985 140.339 10.2555 140.339 10.8311C140.339 11.2881 140.474 11.6562 140.745 11.9355C141.024 12.2148 141.689 12.583 142.738 13.04C144.406 13.6917 145.54 14.3307 146.141 14.957C146.742 15.5749 147.042 16.362 147.042 17.3184C147.042 18.5117 146.632 19.4681 145.811 20.1875C144.99 20.8984 143.889 21.2539 142.51 21.2539C141.079 21.2539 139.92 20.8434 139.031 20.0225C138.143 19.2015 137.698 18.1605 137.698 16.8994H139.958C139.983 17.6611 140.216 18.2578 140.656 18.6895C141.096 19.1211 141.714 19.3369 142.51 19.3369C143.255 19.3369 143.822 19.1719 144.211 18.8418C144.6 18.5033 144.795 18.0505 144.795 17.4834ZM149.505 13.4971C149.505 11.4997 149.987 9.92122 150.952 8.76172C151.925 7.59375 153.208 7.00977 154.799 7.00977C156.39 7.00977 157.668 7.57682 158.633 8.71094C159.606 9.84505 160.105 11.3896 160.131 13.3447V14.792C160.131 16.7809 159.648 18.3551 158.684 19.5146C157.719 20.6742 156.432 21.2539 154.824 21.2539C153.233 21.2539 151.955 20.6911 150.99 19.5654C150.034 18.4398 149.539 16.9163 149.505 14.9951V13.4971ZM151.752 14.792C151.752 16.2054 152.027 17.3184 152.577 18.1309C153.136 18.9349 153.885 19.3369 154.824 19.3369C156.805 19.3369 157.825 17.9066 157.884 15.0459V13.4971C157.884 12.0921 157.604 10.9834 157.046 10.1709C156.487 9.34993 155.738 8.93945 154.799 8.93945C153.876 8.93945 153.136 9.34993 152.577 10.1709C152.027 10.9834 151.752 12.0879 151.752 13.4844V14.792ZM165.146 7.26367L165.209 8.74902C166.081 7.58952 167.194 7.00977 168.548 7.00977C170.977 7.00977 172.208 8.63053 172.242 11.8721V21H170.008V11.9736C170.008 10.8988 169.826 10.137 169.462 9.68848C169.106 9.23145 168.569 9.00293 167.85 9.00293C167.291 9.00293 166.787 9.18913 166.339 9.56152C165.899 9.93392 165.543 10.4206 165.272 11.0215V21H163.025V7.26367H165.146Z" fill="#495464"/>
<path d="M110.133 38V26.625H112.844C114.172 26.625 115.203 27.0417 115.938 27.875C116.672 28.7031 117.039 29.8698 117.039 31.375V33.2812C117.039 34.7865 116.667 35.9505 115.922 36.7734C115.177 37.5911 114.096 38 112.68 38H110.133ZM111.562 27.8594V36.7734H112.711C113.716 36.7734 114.451 36.487 114.914 35.9141C115.378 35.3359 115.615 34.4818 115.625 33.3516V31.3359C115.625 30.138 115.393 29.2604 114.93 28.7031C114.471 28.1406 113.776 27.8594 112.844 27.8594H111.562ZM120.57 38H119.188V29.5469H120.57V38ZM120.68 27.3047C120.68 27.5391 120.615 27.7344 120.484 27.8906C120.354 28.0469 120.156 28.125 119.891 28.125C119.63 28.125 119.435 28.0469 119.305 27.8906C119.174 27.7344 119.109 27.5391 119.109 27.3047C119.109 27.0703 119.174 26.8724 119.305 26.7109C119.435 26.5495 119.63 26.4688 119.891 26.4688C120.151 26.4688 120.346 26.5521 120.477 26.7188C120.612 26.8802 120.68 27.0755 120.68 27.3047ZM123.359 38V30.6641H122.258V29.5469H123.359V28.5703C123.375 27.7109 123.591 27.0417 124.008 26.5625C124.43 26.0781 125.023 25.8359 125.789 25.8359C126.065 25.8359 126.344 25.8802 126.625 25.9688L126.555 27.1406C126.357 27.0938 126.146 27.0703 125.922 27.0703C125.135 27.0703 124.742 27.6302 124.742 28.75V29.5469H126.188V30.6641H124.742V38H123.359ZM128.422 38V30.6641H127.32V29.5469H128.422V28.5703C128.438 27.7109 128.654 27.0417 129.07 26.5625C129.492 26.0781 130.086 25.8359 130.852 25.8359C131.128 25.8359 131.406 25.8802 131.688 25.9688L131.617 27.1406C131.419 27.0938 131.208 27.0703 130.984 27.0703C130.198 27.0703 129.805 27.6302 129.805 28.75V29.5469H131.25V30.6641H129.805V38H128.422ZM137.188 37.2578C136.729 37.8568 136.06 38.1562 135.18 38.1562C134.414 38.1562 133.836 37.8932 133.445 37.3672C133.055 36.8359 132.857 36.0651 132.852 35.0547V29.5469H134.227V34.9531C134.227 36.2708 134.622 36.9297 135.414 36.9297C136.253 36.9297 136.831 36.5547 137.148 35.8047V29.5469H138.531V38H137.219L137.188 37.2578ZM144.719 35.8359C144.719 35.5391 144.607 35.2839 144.383 35.0703C144.159 34.8568 143.727 34.6068 143.086 34.3203C142.341 34.013 141.815 33.75 141.508 33.5312C141.206 33.3125 140.979 33.0651 140.828 32.7891C140.677 32.5078 140.602 32.1745 140.602 31.7891C140.602 31.1016 140.852 30.5312 141.352 30.0781C141.857 29.6198 142.5 29.3906 143.281 29.3906C144.104 29.3906 144.766 29.6302 145.266 30.1094C145.766 30.5885 146.016 31.2031 146.016 31.9531H144.641C144.641 31.5729 144.513 31.25 144.258 30.9844C144.003 30.7135 143.677 30.5781 143.281 30.5781C142.875 30.5781 142.555 30.6849 142.32 30.8984C142.091 31.1068 141.977 31.388 141.977 31.7422C141.977 32.0234 142.06 32.25 142.227 32.4219C142.398 32.5938 142.807 32.8203 143.453 33.1016C144.479 33.5026 145.177 33.8958 145.547 34.2812C145.917 34.6615 146.102 35.1458 146.102 35.7344C146.102 36.4688 145.849 37.0573 145.344 37.5C144.839 37.9375 144.161 38.1562 143.312 38.1562C142.432 38.1562 141.719 37.9036 141.172 37.3984C140.625 36.8932 140.352 36.2526 140.352 35.4766H141.742C141.758 35.9453 141.901 36.3125 142.172 36.5781C142.443 36.8438 142.823 36.9766 143.312 36.9766C143.771 36.9766 144.12 36.875 144.359 36.6719C144.599 36.4635 144.719 36.1849 144.719 35.8359ZM149.398 38H148.016V29.5469H149.398V38ZM149.508 27.3047C149.508 27.5391 149.443 27.7344 149.312 27.8906C149.182 28.0469 148.984 28.125 148.719 28.125C148.458 28.125 148.263 28.0469 148.133 27.8906C148.003 27.7344 147.938 27.5391 147.938 27.3047C147.938 27.0703 148.003 26.8724 148.133 26.7109C148.263 26.5495 148.458 26.4688 148.719 26.4688C148.979 26.4688 149.174 26.5521 149.305 26.7188C149.44 26.8802 149.508 27.0755 149.508 27.3047ZM151.289 33.3828C151.289 32.1536 151.586 31.1823 152.18 30.4688C152.779 29.75 153.568 29.3906 154.547 29.3906C155.526 29.3906 156.312 29.7396 156.906 30.4375C157.505 31.1354 157.812 32.0859 157.828 33.2891V34.1797C157.828 35.4036 157.531 36.3724 156.938 37.0859C156.344 37.7995 155.552 38.1562 154.562 38.1562C153.583 38.1562 152.797 37.8099 152.203 37.1172C151.615 36.4245 151.31 35.487 151.289 34.3047V33.3828ZM152.672 34.1797C152.672 35.0495 152.841 35.7344 153.18 36.2344C153.523 36.7292 153.984 36.9766 154.562 36.9766C155.781 36.9766 156.409 36.0964 156.445 34.3359V33.3828C156.445 32.5182 156.273 31.8359 155.93 31.3359C155.586 30.8307 155.125 30.5781 154.547 30.5781C153.979 30.5781 153.523 30.8307 153.18 31.3359C152.841 31.8359 152.672 32.5156 152.672 33.375V34.1797ZM160.914 29.5469L160.953 30.4609C161.49 29.7474 162.174 29.3906 163.008 29.3906C164.503 29.3906 165.26 30.388 165.281 32.3828V38H163.906V32.4453C163.906 31.7839 163.794 31.3151 163.57 31.0391C163.352 30.7578 163.021 30.6172 162.578 30.6172C162.234 30.6172 161.924 30.7318 161.648 30.9609C161.378 31.1901 161.159 31.4896 160.992 31.8594V38H159.609V29.5469H160.914Z" fill="#845EC2"/>
<path d="M1 38.7342V53H55L54.3647 4C42.5009 25.3658 35.7929 36.4626 23.2353 46.7975C19.74 44.8582 19.0373 34.4643 13.0706 18.8861C8.04613 28.5273 5.38873 32.845 1 38.7342Z" fill="#845EC2" stroke="#845EC2" stroke-width="0.2"/>
<path d="M1 1V31.1538C7.94318 20.5012 12.2476 13.7117 15.1026 11.4615C19.2818 14.9718 21.3981 27.3946 25.359 41C35.98 27.8777 41.7286 19.6725 51 1H1Z" fill="#845EC2" stroke="#845EC2" stroke-width="0.2"/>
<path d="M32.5049 51V46.7344H33.5215C34.0195 46.7344 34.4062 46.8906 34.6816 47.2031C34.957 47.5137 35.0947 47.9512 35.0947 48.5156V49.2305C35.0947 49.7949 34.9551 50.2314 34.6758 50.54C34.3965 50.8467 33.9912 51 33.46 51H32.5049ZM33.041 47.1973V50.54H33.4717C33.8486 50.54 34.124 50.4326 34.2979 50.2178C34.4717 50.001 34.5605 49.6807 34.5645 49.2568V48.501C34.5645 48.0518 34.4775 47.7227 34.3037 47.5137C34.1318 47.3027 33.8711 47.1973 33.5215 47.1973H33.041ZM36.4189 51H35.9004V47.8301H36.4189V51ZM36.46 46.9893C36.46 47.0771 36.4355 47.1504 36.3867 47.209C36.3379 47.2676 36.2637 47.2969 36.1641 47.2969C36.0664 47.2969 35.9932 47.2676 35.9443 47.209C35.8955 47.1504 35.8711 47.0771 35.8711 46.9893C35.8711 46.9014 35.8955 46.8271 35.9443 46.7666C35.9932 46.7061 36.0664 46.6758 36.1641 46.6758C36.2617 46.6758 36.335 46.707 36.3838 46.7695C36.4346 46.8301 36.46 46.9033 36.46 46.9893ZM37.4648 51V48.249H37.0518V47.8301H37.4648V47.4639C37.4707 47.1416 37.5518 46.8906 37.708 46.7109C37.8662 46.5293 38.0889 46.4385 38.376 46.4385C38.4795 46.4385 38.584 46.4551 38.6895 46.4883L38.6631 46.9277C38.5889 46.9102 38.5098 46.9014 38.4258 46.9014C38.1309 46.9014 37.9834 47.1113 37.9834 47.5312V47.8301H38.5254V48.249H37.9834V51H37.4648ZM39.3633 51V48.249H38.9502V47.8301H39.3633V47.4639C39.3691 47.1416 39.4502 46.8906 39.6064 46.7109C39.7646 46.5293 39.9873 46.4385 40.2744 46.4385C40.3779 46.4385 40.4824 46.4551 40.5879 46.4883L40.5615 46.9277C40.4873 46.9102 40.4082 46.9014 40.3242 46.9014C40.0293 46.9014 39.8818 47.1113 39.8818 47.5312V47.8301H40.4238V48.249H39.8818V51H39.3633ZM42.6504 50.7217C42.4785 50.9463 42.2275 51.0586 41.8975 51.0586C41.6104 51.0586 41.3936 50.96 41.2471 50.7627C41.1006 50.5635 41.0264 50.2744 41.0244 49.8955V47.8301H41.54V49.8574C41.54 50.3516 41.6885 50.5986 41.9854 50.5986C42.2998 50.5986 42.5166 50.458 42.6357 50.1768V47.8301H43.1543V51H42.6621L42.6504 50.7217ZM45.4746 50.1885C45.4746 50.0771 45.4326 49.9814 45.3486 49.9014C45.2646 49.8213 45.1025 49.7275 44.8623 49.6201C44.583 49.5049 44.3857 49.4062 44.2705 49.3242C44.1572 49.2422 44.0723 49.1494 44.0156 49.0459C43.959 48.9404 43.9307 48.8154 43.9307 48.6709C43.9307 48.4131 44.0244 48.1992 44.2119 48.0293C44.4014 47.8574 44.6426 47.7715 44.9355 47.7715C45.2441 47.7715 45.4922 47.8613 45.6797 48.041C45.8672 48.2207 45.9609 48.4512 45.9609 48.7324H45.4453C45.4453 48.5898 45.3975 48.4688 45.3018 48.3691C45.2061 48.2676 45.084 48.2168 44.9355 48.2168C44.7832 48.2168 44.6631 48.2568 44.5752 48.3369C44.4893 48.415 44.4463 48.5205 44.4463 48.6533C44.4463 48.7588 44.4775 48.8438 44.54 48.9082C44.6045 48.9727 44.7578 49.0576 45 49.1631C45.3848 49.3135 45.6465 49.4609 45.7852 49.6055C45.9238 49.748 45.9932 49.9297 45.9932 50.1504C45.9932 50.4258 45.8984 50.6465 45.709 50.8125C45.5195 50.9766 45.2656 51.0586 44.9473 51.0586C44.6172 51.0586 44.3496 50.9639 44.1445 50.7744C43.9395 50.585 43.8369 50.3447 43.8369 50.0537H44.3584C44.3643 50.2295 44.418 50.3672 44.5195 50.4668C44.6211 50.5664 44.7637 50.6162 44.9473 50.6162C45.1191 50.6162 45.25 50.5781 45.3398 50.502C45.4297 50.4238 45.4746 50.3193 45.4746 50.1885ZM47.2295 51H46.7109V47.8301H47.2295V51ZM47.2705 46.9893C47.2705 47.0771 47.2461 47.1504 47.1973 47.209C47.1484 47.2676 47.0742 47.2969 46.9746 47.2969C46.877 47.2969 46.8037 47.2676 46.7549 47.209C46.7061 47.1504 46.6816 47.0771 46.6816 46.9893C46.6816 46.9014 46.7061 46.8271 46.7549 46.7666C46.8037 46.7061 46.877 46.6758 46.9746 46.6758C47.0723 46.6758 47.1455 46.707 47.1943 46.7695C47.2451 46.8301 47.2705 46.9033 47.2705 46.9893ZM47.9385 49.2686C47.9385 48.8076 48.0498 48.4434 48.2725 48.1758C48.4971 47.9062 48.793 47.7715 49.1602 47.7715C49.5273 47.7715 49.8223 47.9023 50.0449 48.1641C50.2695 48.4258 50.3848 48.7822 50.3906 49.2334V49.5674C50.3906 50.0264 50.2793 50.3896 50.0566 50.6572C49.834 50.9248 49.5371 51.0586 49.166 51.0586C48.7988 51.0586 48.5039 50.9287 48.2812 50.6689C48.0605 50.4092 47.9463 50.0576 47.9385 49.6143V49.2686ZM48.457 49.5674C48.457 49.8936 48.5205 50.1504 48.6475 50.3379C48.7764 50.5234 48.9492 50.6162 49.166 50.6162C49.623 50.6162 49.8584 50.2861 49.8721 49.626V49.2686C49.8721 48.9443 49.8076 48.6885 49.6787 48.501C49.5498 48.3115 49.377 48.2168 49.1602 48.2168C48.9473 48.2168 48.7764 48.3115 48.6475 48.501C48.5205 48.6885 48.457 48.9434 48.457 49.2656V49.5674ZM51.5479 47.8301L51.5625 48.1729C51.7637 47.9053 52.0205 47.7715 52.333 47.7715C52.8936 47.7715 53.1777 48.1455 53.1855 48.8936V51H52.6699V48.917C52.6699 48.6689 52.6279 48.4932 52.5439 48.3896C52.4619 48.2842 52.3379 48.2314 52.1719 48.2314C52.043 48.2314 51.9268 48.2744 51.8232 48.3604C51.7217 48.4463 51.6396 48.5586 51.5771 48.6973V51H51.0586V47.8301H51.5479Z" fill="white"/>
</svg>
